{"asset": {"version": "2.0", "generator": "Lisar3D Foliage Generator"}, "scenes": [{"nodes": [0]}], "nodes": [{"mesh": 0, "name": "flower_daisy"}], "meshes": [{"name": "flower_daisy", "primitives": [{"attributes": {"POSITION": 0, "NORMAL": 1, "TEXCOORD_0": 2}, "indices": 3, "material": 0}]}], "materials": [{"name": "flower_daisy_mat", "pbrMetallicRoughness": {"baseColorFactor": [0.95, 0.95, 0.95, 1.0], "metallicFactor": 0.1, "roughnessFactor": 0.7}, "emissiveFactor": [0, 0, 0]}], "buffers": [{"byteLength": 1068, "uri": "data:application/octet-stream;base64,"}], "bufferViews": [{"buffer": 0, "byteOffset": 0, "byteLength": 360, "target": 34962}, {"buffer": 0, "byteOffset": 360, "byteLength": 360, "target": 34962}, {"buffer": 0, "byteOffset": 720, "byteLength": 240, "target": 34962}, {"buffer": 0, "byteOffset": 960, "byteLength": 108, "target": 34963}], "accessors": [{"bufferView": 0, "byteOffset": 0, "componentType": 5126, "count": 30, "type": "VEC3", "min": [-0.156, 0.0, -0.1350999629903724], "max": [0.156, 0.46, 0.13509996299037244]}, {"bufferView": 1, "byteOffset": 0, "componentType": 5126, "count": 30, "type": "VEC3"}, {"bufferView": 2, "byteOffset": 0, "componentType": 5126, "count": 30, "type": "VEC2"}, {"bufferView": 3, "byteOffset": 0, "componentType": 5123, "count": 54, "type": "SCALAR"}]}