{"asset": {"version": "2.0", "generator": "Lisar3D Foliage Generator"}, "scenes": [{"nodes": [0]}], "nodes": [{"mesh": 0, "name": "flower_buttercup"}], "meshes": [{"name": "flower_buttercup", "primitives": [{"attributes": {"POSITION": 0, "NORMAL": 1, "TEXCOORD_0": 2}, "indices": 3, "material": 0}]}], "materials": [{"name": "flower_buttercup_mat", "pbrMetallicRoughness": {"baseColorFactor": [1.0, 0.84, 0.0, 1.0], "metallicFactor": 0.1, "roughnessFactor": 0.7}, "emissiveFactor": [0, 0, 0]}], "buffers": [{"byteLength": 968, "uri": "data:application/octet-stream;base64,"}], "bufferViews": [{"buffer": 0, "byteOffset": 0, "byteLength": 324, "target": 34962}, {"buffer": 0, "byteOffset": 324, "byteLength": 324, "target": 34962}, {"buffer": 0, "byteOffset": 648, "byteLength": 216, "target": 34962}, {"buffer": 0, "byteOffset": 864, "byteLength": 104, "target": 34963}], "accessors": [{"bufferView": 0, "byteOffset": 0, "componentType": 5126, "count": 27, "type": "VEC3", "min": [-0.10112712429686845, 0.0, -0.1188820645368942], "max": [0.125, 0.45, 0.11888206453689419]}, {"bufferView": 1, "byteOffset": 0, "componentType": 5126, "count": 27, "type": "VEC3"}, {"bufferView": 2, "byteOffset": 0, "componentType": 5126, "count": 27, "type": "VEC2"}, {"bufferView": 3, "byteOffset": 0, "componentType": 5123, "count": 51, "type": "SCALAR"}]}