{"asset": {"version": "2.0", "generator": "Lisar3D Foliage Generator"}, "scenes": [{"nodes": [0]}], "nodes": [{"mesh": 0, "name": "tree_conifer"}], "meshes": [{"name": "tree_conifer", "primitives": [{"attributes": {"POSITION": 0, "NORMAL": 1, "TEXCOORD_0": 2}, "indices": 3, "material": 0}]}], "materials": [{"name": "tree_conifer_mat", "pbrMetallicRoughness": {"baseColorFactor": [0.15, 0.38, 0.22, 1.0], "metallicFactor": 0.1, "roughnessFactor": 0.7}, "emissiveFactor": [0, 0, 0]}], "buffers": [{"byteLength": 1952, "uri": "data:application/octet-stream;base64,"}], "bufferViews": [{"buffer": 0, "byteOffset": 0, "byteLength": 624, "target": 34962}, {"buffer": 0, "byteOffset": 624, "byteLength": 624, "target": 34962}, {"buffer": 0, "byteOffset": 1248, "byteLength": 416, "target": 34962}, {"buffer": 0, "byteOffset": 1664, "byteLength": 288, "target": 34963}], "accessors": [{"bufferView": 0, "byteOffset": 0, "componentType": 5126, "count": 52, "type": "VEC3", "min": [-2.2, 0.0, -2.2], "max": [2.2, 7.199999999999999, 2.2]}, {"bufferView": 1, "byteOffset": 0, "componentType": 5126, "count": 52, "type": "VEC3"}, {"bufferView": 2, "byteOffset": 0, "componentType": 5126, "count": 52, "type": "VEC2"}, {"bufferView": 3, "byteOffset": 0, "componentType": 5123, "count": 144, "type": "SCALAR"}]}