{"asset": {"version": "2.0", "generator": "Lisar3D Foliage Generator"}, "scenes": [{"nodes": [0]}], "nodes": [{"mesh": 0, "name": "bush_meadow"}], "meshes": [{"name": "bush_meadow", "primitives": [{"attributes": {"POSITION": 0, "NORMAL": 1, "TEXCOORD_0": 2}, "indices": 3, "material": 0}]}], "materials": [{"name": "bush_meadow_mat", "pbrMetallicRoughness": {"baseColorFactor": [0.25, 0.58, 0.25, 1.0], "metallicFactor": 0.1, "roughnessFactor": 0.7}, "emissiveFactor": [0, 0, 0]}], "buffers": [{"byteLength": 7360, "uri": "data:application/octet-stream;base64,"}], "bufferViews": [{"buffer": 0, "byteOffset": 0, "byteLength": 2148, "target": 34962}, {"buffer": 0, "byteOffset": 2148, "byteLength": 2148, "target": 34962}, {"buffer": 0, "byteOffset": 4296, "byteLength": 1432, "target": 34962}, {"buffer": 0, "byteOffset": 5728, "byteLength": 1632, "target": 34963}], "accessors": [{"bufferView": 0, "byteOffset": 0, "componentType": 5126, "count": 179, "type": "VEC3", "min": [-0.815478726112127, -0.1013926100052771, -0.7], "max": [0.8616430290134744, 1.301392610005277, 0.7569515876563775]}, {"bufferView": 1, "byteOffset": 0, "componentType": 5126, "count": 179, "type": "VEC3"}, {"bufferView": 2, "byteOffset": 0, "componentType": 5126, "count": 179, "type": "VEC2"}, {"bufferView": 3, "byteOffset": 0, "componentType": 5123, "count": 816, "type": "SCALAR"}]}