{"asset": {"version": "2.0", "generator": "Lisar3D Foliage Generator"}, "scenes": [{"nodes": [0]}], "nodes": [{"mesh": 0, "name": "tree_oak"}], "meshes": [{"name": "tree_oak", "primitives": [{"attributes": {"POSITION": 0, "NORMAL": 1, "TEXCOORD_0": 2}, "indices": 3, "material": 0}]}], "materials": [{"name": "tree_oak_mat", "pbrMetallicRoughness": {"baseColorFactor": [0.2, 0.5, 0.22, 1.0], "metallicFactor": 0.1, "roughnessFactor": 0.7}, "emissiveFactor": [0, 0, 0]}], "buffers": [{"byteLength": 14048, "uri": "data:application/octet-stream;base64,"}], "bufferViews": [{"buffer": 0, "byteOffset": 0, "byteLength": 4080, "target": 34962}, {"buffer": 0, "byteOffset": 4080, "byteLength": 4080, "target": 34962}, {"buffer": 0, "byteOffset": 8160, "byteLength": 2720, "target": 34962}, {"buffer": 0, "byteOffset": 10880, "byteLength": 3168, "target": 34963}], "accessors": [{"bufferView": 0, "byteOffset": 0, "componentType": 5126, "count": 340, "type": "VEC3", "min": [-2.315710655338779, 0.0, -1.6543319521440523], "max": [2.640857180788268, 6.530072766226924, 2.0160000000000005]}, {"bufferView": 1, "byteOffset": 0, "componentType": 5126, "count": 340, "type": "VEC3"}, {"bufferView": 2, "byteOffset": 0, "componentType": 5126, "count": 340, "type": "VEC2"}, {"bufferView": 3, "byteOffset": 0, "componentType": 5123, "count": 1584, "type": "SCALAR"}]}